<?xml version="1.0" encoding="UTF-8" standalone="no"?>
<!-- Created with Inkscape (http://www.inkscape.org/) -->

<svg
   width="173.34094mm"
   height="76.342735mm"
   viewBox="0 0 173.34094 76.342735"
   version="1.1"
   id="svg1"
   xml:space="preserve"
   inkscape:version="1.4 (86a8ad7, 2024-10-11)"
   sodipodi:docname="logo muckaround.svg"
   xmlns:inkscape="http://www.inkscape.org/namespaces/inkscape"
   xmlns:sodipodi="http://sodipodi.sourceforge.net/DTD/sodipodi-0.dtd"
   xmlns="http://www.w3.org/2000/svg"
   xmlns:svg="http://www.w3.org/2000/svg"><sodipodi:namedview
     id="namedview1"
     pagecolor="#ffffff"
     bordercolor="#000000"
     borderopacity="0.25"
     inkscape:showpageshadow="2"
     inkscape:pageopacity="0.0"
     inkscape:pagecheckerboard="0"
     inkscape:deskcolor="#d1d1d1"
     inkscape:document-units="mm"
     inkscape:zoom="0.73851712"
     inkscape:cx="229.51398"
     inkscape:cy="493.5566"
     inkscape:window-width="1920"
     inkscape:window-height="1009"
     inkscape:window-x="-8"
     inkscape:window-y="-8"
     inkscape:window-maximized="1"
     inkscape:current-layer="layer1"><inkscape:page
       x="0"
       y="0"
       width="173.34094"
       height="76.342735"
       id="page2"
       margin="0"
       bleed="0" /></sodipodi:namedview><defs
     id="defs1" /><g
     inkscape:label="Layer 1"
     inkscape:groupmode="layer"
     id="layer1"
     transform="translate(-21.215665,-108.12201)"><path
       style="fill:#c26a3e;fill-opacity:1;stroke-width:1.05728"
       d="m 102.58963,181.17468 c -0.78257,-0.23799 -1.30416,-1.48855 -2.17224,-5.20821 -0.452913,-1.94066 -0.823467,-3.64624 -0.823467,-3.79017 0,-0.14392 -0.147475,-0.75706 -0.32771,-1.36255 -0.180237,-0.60549 -1.180576,-4.71677 -2.222975,-9.1362 -1.042399,-4.41939 -2.711446,-11.49397 -3.708994,-15.72124 -0.997547,-4.22725 -1.975062,-8.23618 -2.172255,-8.90869 -0.197192,-0.67253 -0.539937,-2.00883 -0.761657,-2.96958 -2.065366,-8.94953 -2.957467,-11.3524 -6.003113,-16.16931 -1.893377,-2.99451 -8.316901,-3.48738 -10.978064,-3.85025 -3.600263,-0.49095 -32.826384,-0.78439 -32.42356,-2.88114 0.445571,-2.31923 39.221062,-3.23547 42.226057,-3.02642 3.246774,0.22585 4.488153,0.72688 7.206773,2.90866 4.124658,3.31017 7.006096,8.41089 8.266757,14.63379 0.155704,0.76862 0.936329,4.07008 1.734698,7.33658 1.20318,4.92275 3.44748,14.1815 6.35131,26.20208 1.2577,5.20636 0.99343,5.92218 6.51349,-17.64273 0.38258,-1.63325 0.94774,-3.99144 1.2559,-5.24041 0.30815,-1.24896 1.04759,-4.42905 1.64319,-7.06685 2.50767,-11.10613 5.24104,-16.20962 10.59688,-19.78553 3.39099,-2.26405 46.47993,1.03066 46.48348,2.38164 0.004,1.69368 1.40366,0.29546 -26.43359,1.60379 -13.23583,0.62207 -15.54453,2.04005 -17.82693,7.21221 -1.75915,3.98637 -2.30279,5.89193 -5.0144,17.57623 -0.71348,3.07438 -1.69276,7.2405 -2.17618,9.25806 -1.5038,6.27624 -4.53846,19.19282 -5.54041,23.58187 -1.54015,6.74678 -2.14539,8.87774 -2.72256,9.58586 -0.49813,0.61114 -0.95175,0.66413 -5.51852,0.64459 -2.73668,-0.0119 -5.19004,-0.0865 -5.45191,-0.16608 z"
       id="path3"
       sodipodi:nodetypes="csssssssssssssssssssssssssscc"
       inkscape:export-filename="logo.png"
       inkscape:export-xdpi="96"
       inkscape:export-ydpi="96" /><path
       style="fill:#2f5c42;fill-opacity:1;stroke-width:1.05728"
       d="m 23.533668,183.40832 c -0.573028,-0.25329 -1.328997,-0.76125 -1.679934,-1.12877 l -0.638068,-0.66823 1.231953,-0.28656 c 1.993265,-0.46364 2.756068,-0.86659 3.930513,-2.07627 3.588063,-3.69576 7.7393,-13.93472 8.820186,-21.75489 0.292143,-2.11362 0.871106,-6.20115 1.286585,-9.08338 0.41548,-2.88223 1.467495,-10.42842 2.337809,-16.76931 0.870316,-6.34092 1.750197,-12.07792 1.955293,-12.74892 0.557792,-1.82491 1.043327,-2.03278 4.860143,-2.08062 5.054572,-0.0634 5.331113,0.18339 7.055283,6.29542 0.511023,1.81154 1.137202,4.00116 1.391507,4.86584 0.254305,0.86465 1.086727,3.79712 1.849827,6.51657 2.819183,10.04669 3.709215,10.807 5.597083,4.78121 0.471876,-1.50615 1.957083,-6.27575 3.30046,-10.59908 1.343378,-4.32334 2.659939,-8.54276 2.925691,-9.37648 0.762136,-2.39099 1.184685,-2.5778 5.526434,-2.44328 2.646968,0.082 3.852045,0.2493 4.098589,0.56895 0.590819,0.76599 1.034183,2.61666 1.490748,6.22257 0.397901,3.14259 2.845573,21.36041 3.726588,27.7367 0.671599,4.86065 1.874818,10.26787 2.876381,12.92635 3.046904,8.08752 8.180932,13.96259 13.45267,15.39446 3.564081,0.96805 -0.172538,3.78034 -5.05977,3.80812 -7.055186,0.0401 -13.238117,-4.91329 -16.954738,-13.58313 -1.760932,-4.10775 -2.259037,-6.55307 -3.881762,-19.05643 -0.441118,-3.39889 -1.323162,-4.91702 -2.621522,-4.51201 -1.03529,0.32295 -1.319298,1.03548 -4.717476,11.83518 -1.692891,5.38016 -3.271043,10.04083 -3.507003,10.35706 -0.805398,1.07935 -2.571962,1.77714 -3.899197,1.54017 -2.174084,-0.38817 -2.323486,-0.68332 -5.754327,-11.36839 -4.059045,-12.64154 -4.204555,-12.96852 -5.538841,-12.4462 -0.905545,0.3545 -1.227099,1.52835 -1.938737,7.0776 -0.939432,7.32554 -1.498958,10.7865 -2.163873,13.38467 -1.827757,7.14202 -7.008906,14.27888 -11.820876,16.28286 -1.824573,0.75985 -6.188412,0.98461 -7.537619,0.38822 z"
       id="path2" /><path
       style="fill:#2f5c42;fill-opacity:1;stroke-width:1.05728"
       d="m 128.46962,183.92825 c -2.19156,0.46132 -2.28004,0.53057 -4.10697,0.53637 -4.07954,0.013 -5.1758,-1.02492 -7.7049,-1.84913 -1.05951,-0.34529 -0.31773,-2.26117 1.22358,-2.45394 2.47888,-0.31006 10.69724,-4.86871 14.07487,-13.01705 1.69124,-4.08003 1.71436,-4.19687 4.59671,-23.2325 0.49462,-3.26651 0.99545,-6.56799 1.11296,-7.33659 1.27747,-8.35555 1.64359,-10.84552 1.91489,-13.02317 0.66963,-5.37498 1.06481,-5.80126 5.52695,-5.96193 4.80913,-0.17317 4.88894,-0.0348 3.98275,6.90075 -0.56605,4.33229 -1.72254,13.70021 -2.13879,17.32477 -0.65715,5.72225 -0.20387,8.72283 1.28308,8.49355 0.80835,-0.12465 1.25165,-0.99819 3.73984,-7.36933 7.59082,-19.43668 7.79207,-19.9083 8.86487,-20.77357 1.06829,-0.86164 4.28342,-0.79894 5.27024,0.1027 1.19445,1.09142 1.31104,1.82108 2.01871,12.63388 0.94735,14.47485 1.05858,15.12269 2.59643,15.12269 1.19164,0 1.6985,-1.44106 2.76483,-7.86062 1.8414,-11.08576 2.65319,-14.1195 4.85772,-18.15372 3.11986,-5.70922 7.65453,-8.84091 12.28938,-8.48716 2.09104,0.15959 3.91985,1.01683 3.91985,1.83738 0,0.24711 -0.8519,1.10752 -1.89311,1.91201 -3.02943,2.34065 -4.76964,5.15658 -6.69815,10.83854 -1.5607,4.59827 -2.21938,7.96732 -7.66425,39.20207 -1.1922,6.83907 -0.95798,6.63672 -7.51852,6.49564 l -4.93445,-0.10612 -0.61941,-1.08195 c -0.66448,-1.16072 -0.94323,-2.59624 -2.36784,-12.19376 -1.96862,-13.2626 -1.86124,-12.75168 -2.67984,-12.75168 -0.57394,0 -0.97964,1.85919 -2.8381,4.89105 -6.99736,11.41542 -6.80895,11.44347 -11.795,17.48636 -2.79286,3.38483 -2.78296,3.62496 -4.32942,4.85916 -1.49063,1.18966 -3.04697,2.61378 -5.1212,3.78227 -2.8209,1.5891 -3.26766,1.73565 -7.62771,3.23303 z"
       id="path1"
       sodipodi:nodetypes="cssssscsssssssssssssssssccsssssssc" /><rect
       style="fill:none;fill-opacity:1;stroke:#2b0000;stroke-width:1.5;stroke-dasharray:none;stroke-opacity:1"
       id="rect3"
       width="187.97098"
       height="159.09135"
       x="13.67983"
       y="65.359184" /></g></svg>
